<svg width="40" height="40" viewBox="0 0 40 40" fill="none" xmlns="http://www.w3.org/2000/svg">
<path d="M3.42871 16.4762H4.82554L4.12712 14.6984L3.42871 16.4762Z" fill="#2FABF7"/>
<path d="M20.7619 14.9524C20.6349 14.8889 20.4445 14.8889 20.254 14.8889H18.9841V15.9048H20.254C20.4445 15.9048 20.6349 15.9048 20.7619 15.8413C20.8889 15.7778 20.9524 15.5873 20.9524 15.3969C21.0159 15.1429 20.8889 15.0159 20.7619 14.9524Z" fill="#228FE0"/>
<path d="M34.3492 13.0476V13.8095L33.9683 13.0476H30.9841V13.8095L30.6032 13.0476H26.5397C25.8413 13.0476 25.2698 13.1746 24.7619 13.4286V13.0476H21.9048V13.4286C21.5873 13.1746 21.2063 13.0476 20.6984 13.0476H10.4762L9.77778 14.6349L9.07937 13.0476H5.84127V13.8095L5.46032 13.0476H2.73016L1.46032 16.0317L0 19.3333H1.46032H3.2381L3.61905 18.3174H4.50794L4.88889 19.3333H8.57143V18.5714L8.88889 19.3333H10.7302L11.0476 18.5714V19.3333H19.873V17.6825H20C20.127 17.6825 20.127 17.6825 20.127 17.873V19.2698H24.6984V18.8889C25.0794 19.0794 25.6508 19.2698 26.4127 19.2698H28.3175L28.6984 18.254H29.5873L29.9683 19.2698H33.6508V18.3174L34.2222 19.2698H37.2063V13.0476H34.3492ZM12.8889 18.3809H11.8095V14.8889L10.2857 18.3809H9.33333L7.80952 14.8889V18.3809H5.65079L5.20635 17.4286H3.04762L2.66667 18.4444H1.46032L3.36508 13.9365H4.95238L6.73016 18.1905V13.9365H8.44444L9.84127 16.9841L11.1111 13.9365H12.8889V18.3809ZM17.2064 14.8889H14.7302V15.7143H17.1429V16.6032H14.7302V17.4921H17.2064V18.4444H13.6508V13.9365H17.2064V14.8889ZM21.9683 16.7301C22.0952 16.9841 22.1587 17.1746 22.1587 17.5555V18.4444H21.0794V17.873C21.0794 17.619 21.0794 17.2381 20.8889 16.9841C20.6984 16.7936 20.5079 16.7936 20.127 16.7936H18.9841V18.4444H17.9048V13.9365H20.3175C20.8889 13.9365 21.2698 13.9365 21.5873 14.127C21.9048 14.3174 22.0952 14.6349 22.0952 15.1428C22.0952 15.8413 21.6508 16.2222 21.3333 16.3492C21.6508 16.4127 21.8413 16.6032 21.9683 16.7301ZM23.873 18.3809H22.7937V13.873H23.873V18.3809ZM36.381 18.3809H34.8571L32.8254 15.0159V18.3809H30.6667L30.2857 17.4286H28.0635L27.6825 18.4444H26.4762C25.9683 18.4444 25.3333 18.3174 24.9524 17.9365C24.5714 17.5555 24.381 17.0476 24.381 16.2222C24.381 15.5873 24.5079 14.9524 24.9524 14.4444C25.2698 14.0635 25.8413 13.9365 26.5397 13.9365H27.5556V14.8889H26.5397C26.1587 14.8889 25.9683 14.9524 25.7143 15.1428C25.5238 15.3333 25.3968 15.7143 25.3968 16.1587C25.3968 16.6667 25.4603 16.9841 25.7143 17.2381C25.9048 17.4286 26.1587 17.4921 26.4762 17.4921H26.9206L28.381 14H29.9683L31.746 18.254V14H33.3333L35.1746 17.1111V14H36.254V18.3809H36.381Z" fill="#0571C1"/>
<path d="M28.4446 16.4762H29.9049L29.2065 14.6984L28.4446 16.4762Z" fill="#228FE0"/>
<path d="M17.6508 25.619V22L16 23.7778L17.6508 25.619Z" fill="#228FE0"/>
<path d="M10.8572 22.4444V23.2698H13.2064V24.1587H10.8572V25.1111H13.4604L14.6667 23.7777L13.5238 22.4444H10.8572Z" fill="#2FABF7"/>
<path d="M20.0636 22.4444H18.7302V23.5873H20.1271C20.508 23.5873 20.762 23.3968 20.762 23.0158C20.6985 22.6349 20.4445 22.4444 20.0636 22.4444Z" fill="#228FE0"/>
<path d="M39.6826 23.5238V20.6666H38.9207H37.0159C36.4445 20.6666 36 20.7936 35.6826 21.0476V20.6666H32.7619C32.3175 20.6666 31.7461 20.7936 31.4921 21.0476V20.6666H26.3492V21.0476C25.9683 20.7301 25.2699 20.6666 24.9524 20.6666H21.5239V21.0476C21.2064 20.7301 20.4445 20.6666 20.0635 20.6666H16.254L15.3651 21.619L14.5397 20.6666H8.82544V26.8888H14.4127L15.3016 25.9365L16.127 26.8888H19.5556V25.4285H20C20.4445 25.4285 21.0159 25.4285 21.4604 25.2381V26.9523H24.3175V25.3015H24.4445C24.635 25.3015 24.635 25.3015 24.635 25.492V26.9523H33.2699C33.8413 26.9523 34.4127 26.8254 34.7302 26.5714V26.9523H37.4604C38.0318 26.9523 38.6032 26.8888 38.9842 26.6349C39.6191 26.2539 40 25.5555 40 24.7301C40 24.2857 39.8731 23.8412 39.6826 23.5238ZM20 24.5396H18.7302V26.0635H16.6985L15.4286 24.6031L14.0953 26.0635H9.90481V21.5555H14.1588L15.4286 23.0158L16.7619 21.5555H20.127C20.9524 21.5555 21.9048 21.8095 21.9048 23.0158C21.8413 24.2857 20.9524 24.5396 20 24.5396ZM26.3492 24.2857C26.4762 24.4762 26.5397 24.7301 26.5397 25.1111V26H25.4604V25.4285C25.4604 25.1746 25.4604 24.7301 25.2699 24.5396C25.1429 24.3492 24.8889 24.3492 24.508 24.3492H23.3651V26H22.2858V21.492H24.6985C25.2064 21.492 25.6508 21.492 25.9683 21.6825C26.2858 21.873 26.5397 22.1904 26.5397 22.6984C26.5397 23.3968 26.0953 23.7777 25.7778 23.9047C26.0953 24.0317 26.2858 24.1587 26.3492 24.2857ZM30.7302 22.4444H28.254V23.2698H30.6667V24.1587H28.254V25.0476H30.7302V26H27.1746V21.492H30.7302V22.4444ZM33.3969 26H31.3651V25.0476H33.3969C33.5873 25.0476 33.7143 25.0476 33.8413 24.9206C33.9048 24.8571 33.9683 24.7301 33.9683 24.6031C33.9683 24.4762 33.9048 24.3492 33.8413 24.2857C33.7778 24.2222 33.6508 24.1587 33.4604 24.1587C32.4445 24.0952 31.2381 24.1587 31.2381 22.7619C31.2381 22.1269 31.6191 21.4285 32.7619 21.4285H34.8572V22.5079H32.8889C32.6985 22.5079 32.5715 22.5079 32.4445 22.5714C32.3175 22.6349 32.3175 22.7619 32.3175 22.8888C32.3175 23.0793 32.4445 23.1428 32.5715 23.2063C32.6985 23.2698 32.8254 23.2698 32.9524 23.2698H33.5239C34.0953 23.2698 34.4762 23.3968 34.7302 23.6508C34.9207 23.8412 35.0477 24.1587 35.0477 24.6031C35.0477 25.5555 34.4762 26 33.3969 26ZM38.8572 25.5555C38.6032 25.8095 38.1588 26 37.5239 26H35.4921V25.0476H37.5239C37.7143 25.0476 37.8413 25.0476 37.9683 24.9206C38.0318 24.8571 38.0953 24.7301 38.0953 24.6031C38.0953 24.4762 38.0318 24.3492 37.9683 24.2857C37.9048 24.2222 37.7778 24.1587 37.5873 24.1587C36.5715 24.0952 35.3651 24.1587 35.3651 22.7619C35.3651 22.1269 35.7461 21.4285 36.8889 21.4285H38.9842V22.5079H37.0794C36.8889 22.5079 36.7619 22.5079 36.635 22.5714C36.508 22.6349 36.508 22.7619 36.508 22.8888C36.508 23.0793 36.5715 23.1428 36.7619 23.2063C36.8889 23.2698 37.0159 23.2698 37.1429 23.2698H37.7143C38.2858 23.2698 38.6667 23.3968 38.9207 23.6508C38.9842 23.6508 38.9842 23.7142 38.9842 23.7142C39.1746 23.9682 39.2381 24.2857 39.2381 24.6031C39.2381 24.9841 39.1112 25.3015 38.8572 25.5555Z" fill="#0571C1"/>
<path d="M25.2065 22.5714C25.0795 22.5079 24.889 22.5079 24.6985 22.5079H23.4287V23.5238H24.6985C24.889 23.5238 25.0795 23.5238 25.2065 23.4603C25.3335 23.3968 25.397 23.2063 25.397 23.0159C25.4604 22.7619 25.3335 22.6349 25.2065 22.5714Z" fill="#228FE0"/>
<path d="M20.7619 14.9524C20.6349 14.8889 20.4445 14.8889 20.254 14.8889H18.9841V15.9048H20.254C20.4445 15.9048 20.6349 15.9048 20.7619 15.8413C20.8889 15.7778 20.9524 15.5873 20.9524 15.3969C21.0159 15.1429 20.8889 15.0159 20.7619 14.9524Z" fill="#228FE0"/>
<path d="M28.4446 16.4762H29.9049L29.2065 14.6984L28.4446 16.4762Z" fill="#228FE0"/>
<path d="M17.6508 25.619V22L16 23.7778L17.6508 25.619Z" fill="#228FE0"/>
<path d="M20.0636 22.4444H18.7302V23.5873H20.1271C20.508 23.5873 20.762 23.3968 20.762 23.0158C20.6985 22.6349 20.4445 22.4444 20.0636 22.4444Z" fill="#228FE0"/>
<path d="M25.2065 22.5714C25.0795 22.5079 24.889 22.5079 24.6985 22.5079H23.4287V23.5238H24.6985C24.889 23.5238 25.0795 23.5238 25.2065 23.4603C25.3335 23.3968 25.397 23.2063 25.397 23.0159C25.4604 22.7619 25.3335 22.6349 25.2065 22.5714Z" fill="#228FE0"/>
<path d="M19.6191 25.873L18.7302 24.9206V26H16.635L15.3651 24.5396L13.9683 26H9.77782V21.5555H14.0318L15.3651 23.0158L16 22.2539L14.4127 20.6666H8.82544V26.8888H14.4127L15.3651 25.9365L16.1905 26.8888H19.6191V25.873Z" fill="#2FABF7"/>
<path d="M13.0159 19.2698L12.1905 18.3809H11.8095V18L10.8571 17.0476L10.2222 18.3809H9.33333L7.80952 14.8889V18.3809H5.65079L5.20635 17.4286H3.04762L2.60317 18.3809H1.46032L3.36508 13.9365H4.95238L6.73016 18.1905V13.9365H7.68254L6.79365 13.0476H5.84127V13.8095L5.52381 13.0476H2.73016L1.46032 16.0317L0 19.2698H1.46032H3.30159L3.68254 18.3174H4.57143L5.01587 19.2698H8.57143V18.5079L8.88889 19.2698H10.7302L11.0476 18.5079V19.2698H13.0159Z" fill="#2FABF7"/>
<path d="M10.0952 16.3492L9.07935 15.3333L9.84124 16.9841L10.0952 16.3492Z" fill="#2FABF7"/>
<path d="M38.9842 26.5714C39.5556 26.1905 39.9365 25.5556 40 24.8571L39.1111 23.9683C39.1746 24.1587 39.2381 24.3492 39.2381 24.6032C39.2381 24.9841 39.1111 25.3016 38.8572 25.5556C38.6032 25.8095 38.1588 26 37.5238 26H35.4921V25.0476H37.5238C37.7143 25.0476 37.8413 25.0476 37.9683 24.9206C38.0318 24.8571 38.0953 24.7302 38.0953 24.6032C38.0953 24.4762 38.0318 24.3492 37.9683 24.2857C37.9048 24.2222 37.7778 24.1587 37.5873 24.1587C36.5715 24.0952 35.3651 24.1587 35.3651 22.7619C35.3651 22.127 35.7461 21.5556 36.6985 21.4286L36 20.7302C35.8731 20.7937 35.8096 20.8571 35.7461 20.8571V20.4762H32.8254C32.381 20.4762 31.8096 20.6032 31.5556 20.8571V20.4762H26.3492V20.8571C25.9683 20.5397 25.2699 20.4762 24.9524 20.4762H21.5238V20.8571C21.2064 20.5397 20.4445 20.4762 20.0635 20.4762H16.254L15.3651 21.4286L14.5397 20.4762H13.8413L15.7461 22.381L16.6985 21.3651H20.0635C20.8889 21.3651 21.8413 21.6191 21.8413 22.8254C21.8413 24.0952 20.9524 24.3492 20 24.3492H18.7302V25.3016L19.6826 26.254V25.3016H20C20.4445 25.3016 21.0159 25.3016 21.4604 25.1111V26.8254H24.3175V25.1746H24.4445C24.635 25.1746 24.635 25.1746 24.635 25.3651V26.8254H33.2699C33.8413 26.8254 34.4127 26.6984 34.7302 26.4445V26.8254H37.4604C37.9683 26.8889 38.5397 26.8254 38.9842 26.5714ZM26.3492 24.2857C26.4762 24.4762 26.5397 24.7302 26.5397 25.1111V26H25.4604V25.4286C25.4604 25.1746 25.4604 24.7302 25.2699 24.5397C25.1429 24.3492 24.8889 24.3492 24.508 24.3492H23.3651V26H22.2858V21.4921H24.6985C25.2064 21.4921 25.6508 21.4921 25.9683 21.6825C26.2858 21.873 26.5397 22.1905 26.5397 22.6984C26.5397 23.3968 26.0953 23.7778 25.7778 23.9048C26.0953 24.0318 26.2858 24.1587 26.3492 24.2857ZM30.7302 22.4444H28.254V23.2698H30.6667V24.1587H28.254V25.0476H30.7302V26H27.1746V21.4921H30.7302V22.4444ZM33.3969 26H31.3651V25.0476H33.3969C33.5873 25.0476 33.7143 25.0476 33.8413 24.9206C33.9048 24.8571 33.9683 24.7302 33.9683 24.6032C33.9683 24.4762 33.9048 24.3492 33.8413 24.2857C33.7778 24.2222 33.6508 24.1587 33.4604 24.1587C32.4445 24.0952 31.2381 24.1587 31.2381 22.7619C31.2381 22.127 31.6191 21.4286 32.7619 21.4286H34.8572V22.5079H32.8889C32.6985 22.5079 32.5715 22.5079 32.4445 22.5714C32.3175 22.6349 32.3175 22.7619 32.3175 22.8889C32.3175 23.0794 32.4445 23.1429 32.5715 23.2064C32.6985 23.2698 32.8254 23.2698 32.9524 23.2698H33.5238C34.0953 23.2698 34.4762 23.3968 34.7302 23.6508C34.9207 23.8413 35.0477 24.1587 35.0477 24.6032C35.0477 25.5556 34.4762 26 33.3969 26Z" fill="#228FE0"/>
<path d="M36.4441 22.8889C36.4441 23.0794 36.5076 23.1429 36.6981 23.2063C36.825 23.2698 36.952 23.2698 37.079 23.2698H37.6504C38.0314 23.2698 38.2854 23.3333 38.5393 23.4603L37.587 22.5079H37.0155C36.825 22.5079 36.6981 22.5079 36.5711 22.5714C36.5076 22.6349 36.4441 22.7619 36.4441 22.8889Z" fill="#228FE0"/>
<path d="M34.2219 19.0793L34.3489 19.2698H34.4124L34.2219 19.0793Z" fill="#228FE0"/>
<path d="M30.73 15.5873L31.8093 18.1905V16.6666L30.73 15.5873Z" fill="#228FE0"/>
<path d="M19.8729 17.6825H19.9999C20.1269 17.6825 20.1269 17.6825 20.1269 17.873V19.2698H24.6983V18.8889C25.0793 19.0793 25.6507 19.2698 26.4126 19.2698H28.3174L28.6983 18.2539H29.5872L29.9682 19.2698H33.6507V18.6349L32.7618 17.746V18.4444H30.6031L30.2856 17.4285H28.0634L27.6825 18.4444H26.4761C25.9682 18.4444 25.3333 18.3174 24.9523 17.9365C24.5714 17.5555 24.3809 17.0476 24.3809 16.2222C24.3809 15.5873 24.5079 14.9524 24.9523 14.4444C25.2698 14.0635 25.8412 13.9365 26.5396 13.9365H27.5555V14.8889H26.5396C26.1587 14.8889 25.9682 14.9524 25.7142 15.1428C25.5237 15.3333 25.3968 15.7143 25.3968 16.1587C25.3968 16.6666 25.4602 16.9841 25.7142 17.2381C25.9047 17.4285 26.1587 17.492 26.4761 17.492H26.9206L28.3809 14H29.0158L28.1269 13.1111H26.4761C25.7777 13.1111 25.2063 13.2381 24.6983 13.492V13.1111H21.9047V13.492C21.5872 13.2381 21.2063 13.1111 20.6983 13.1111H10.4761L9.77771 14.6984L9.0793 13.1111H6.28564L7.17453 14H8.44438L9.52374 16.3492L9.90469 16.7301L11.0475 13.9365H12.8253V18.4444H11.746V14.9524L10.6666 17.492L12.5079 19.3333H19.8095L19.8729 17.6825ZM22.7936 13.9365H23.8729V18.4444H22.7936V13.9365ZM17.2063 14.8889H14.7301V15.7143H17.1428V16.6031H14.7301V17.492H17.2063V18.4444H13.6507V13.9365H17.2063V14.8889ZM18.9841 18.3809H17.9047V13.873H20.3174C20.8888 13.873 21.2698 13.873 21.5872 14.0635C21.9047 14.2539 22.0952 14.5714 22.0952 15.0793C22.0952 15.7778 21.6507 16.1587 21.3333 16.2857C21.5872 16.3492 21.7777 16.5397 21.8412 16.6666C21.9682 16.9206 22.0317 17.1111 22.0317 17.492V18.3809H20.9523V17.8095C20.9523 17.5555 20.9523 17.1746 20.7618 16.9206C20.6983 16.7936 20.5079 16.7936 20.1269 16.7936H18.9841V18.3809Z" fill="#228FE0"/>
</svg>
