<svg width="28" height="28" viewBox="0 0 28 28" fill="none" xmlns="http://www.w3.org/2000/svg">
<path d="M14.2917 19.8333C18.802 19.8333 22.4583 16.177 22.4583 11.6667C22.4583 7.15634 18.802 3.5 14.2917 3.5C9.78134 3.5 6.125 7.15634 6.125 11.6667C6.125 16.177 9.78134 19.8333 14.2917 19.8333Z" stroke="#4F4F4F" stroke-width="1.5" stroke-linecap="round" stroke-linejoin="round"/>
<path d="M9.64924 18.9651L8.16699 25.0834L14.292 23.0686L20.417 25.0834L18.9347 18.9584" stroke="#4F4F4F" stroke-width="1.5" stroke-linecap="round" stroke-linejoin="round"/>
<path d="M11.198 13.7434C10.8754 13.7434 10.5814 13.6821 10.316 13.5596C10.0547 13.433 9.82803 13.2656 9.63612 13.0574C9.4442 12.845 9.2972 12.6082 9.19512 12.3469C9.09303 12.0815 9.04199 11.8079 9.04199 11.5261C9.04199 11.2403 9.09508 10.9667 9.20124 10.7054C9.31149 10.44 9.46258 10.2052 9.65449 10.001C9.85049 9.79275 10.0812 9.62942 10.3466 9.511C10.612 9.39258 10.902 9.33337 11.2164 9.33337C11.539 9.33337 11.8309 9.39667 12.0922 9.52325C12.3577 9.64575 12.5843 9.81317 12.7721 10.0255C12.964 10.2378 13.111 10.4767 13.2131 10.7421C13.3152 11.0035 13.3662 11.2709 13.3662 11.5445C13.3662 11.8303 13.3111 12.106 13.2009 12.3714C13.0947 12.6327 12.9436 12.8675 12.7476 13.0757C12.5557 13.2799 12.327 13.4432 12.0616 13.5657C11.8003 13.6842 11.5124 13.7434 11.198 13.7434ZM10.0649 11.5384C10.0649 11.763 10.1077 11.9753 10.1935 12.1754C10.2792 12.3714 10.4079 12.5327 10.5794 12.6592C10.7509 12.7858 10.9591 12.8491 11.2041 12.8491C11.4573 12.8491 11.6676 12.7838 11.835 12.6531C12.0065 12.5225 12.1331 12.3571 12.2147 12.157C12.3005 11.9528 12.3434 11.7425 12.3434 11.5261C12.3434 11.3015 12.2985 11.0912 12.2086 10.8952C12.1229 10.6952 11.9942 10.5339 11.8227 10.4114C11.6553 10.2889 11.4491 10.2276 11.2041 10.2276C10.951 10.2276 10.7386 10.293 10.5671 10.4236C10.3997 10.5502 10.2731 10.7135 10.1874 10.9136C10.1057 11.1137 10.0649 11.322 10.0649 11.5384Z" fill="#4F4F4F"/>
<path d="M13.9467 13.7066V9.35787H15.9067C16.1108 9.35787 16.2987 9.40075 16.4702 9.4865C16.6458 9.56817 16.7968 9.68046 16.9234 9.82337C17.05 9.96221 17.148 10.1194 17.2174 10.295C17.2909 10.4706 17.3277 10.6482 17.3277 10.8279C17.3277 11.0974 17.2623 11.3465 17.1317 11.5751C17.0051 11.7997 16.8336 11.9712 16.6172 12.0896L17.5727 13.7066H16.4641L15.6311 12.304H14.9512V13.7066H13.9467ZM14.9512 11.4281H15.8699C15.9883 11.4281 16.0904 11.373 16.1762 11.2627C16.2619 11.1484 16.3048 11.0035 16.3048 10.8279C16.3048 10.6523 16.2558 10.5114 16.1578 10.4052C16.0598 10.295 15.9536 10.2399 15.8393 10.2399H14.9512V11.4281Z" fill="#4F4F4F"/>
<path d="M18.05 13.7066V9.35787H19.0545V13.7066H18.05Z" fill="#4F4F4F"/>
</svg>
