<svg width="24" height="24" viewBox="0 0 24 24" fill="none" xmlns="http://www.w3.org/2000/svg">
<path d="M14.6875 10.7917C14.6875 11.1361 14.5507 11.4664 14.3071 11.7099C14.0636 11.9535 13.7333 12.0903 13.3889 12.0903H5.59722L3 14.6875V4.29861C3 3.9542 3.13682 3.62389 3.38035 3.38035C3.62389 3.13682 3.9542 3 4.29861 3H13.3889C13.7333 3 14.0636 3.13682 14.3071 3.38035C14.5507 3.62389 14.6875 3.9542 14.6875 4.29861V10.7917Z" stroke="white" stroke-width="1.5" stroke-linecap="round" stroke-linejoin="round"/>
<path d="M9.375 17.1042C9.375 17.4486 9.51182 17.7789 9.75535 18.0224C9.99889 18.266 10.3292 18.4028 10.6736 18.4028H18.4653L21.0625 21V10.6111C21.0625 10.2667 20.9257 9.93639 20.6821 9.69285C20.4386 9.44932 20.1083 9.3125 19.7639 9.3125H10.6736C10.3292 9.3125 9.99889 9.44932 9.75535 9.69285C9.51182 9.93639 9.375 10.2667 9.375 10.6111V17.1042Z" fill="#CA8F48" stroke="white" stroke-width="1.5" stroke-linecap="round" stroke-linejoin="round"/>
</svg>
