<svg width="40" height="40" viewBox="0 0 40 40" fill="none" xmlns="http://www.w3.org/2000/svg">
<path d="M28 32H28.5714L29.2064 31.9365L29.7778 31.873L30.4127 31.746L30.9841 31.619L31.5556 31.4921L32.127 31.3016L32.6349 31.0476L33.2064 30.7936L33.7143 30.5397L34.2222 30.2857L34.6667 29.9683L35.1746 29.6508L35.6191 29.2698L36.0635 28.8889L36.4445 28.5079L36.8889 28.0635L37.2699 27.619L37.5873 27.1746L37.9683 26.7302L38.2857 26.2222L38.5397 25.7143L38.7937 25.2063L39.0476 24.6349L39.2381 24.127L39.4921 23.5556L39.6191 22.9841L39.746 22.4127L39.873 21.8413L39.9365 21.2063L40 20.5714V20V19.3651L39.9365 18.7302L39.873 18.1587L39.746 17.5873L39.6191 17.0159L39.4921 16.4444L39.2381 15.873L39.0476 15.3016L38.7937 14.7936L38.5397 14.2857L38.2857 13.7778L37.9683 13.2698L37.5873 12.8254L37.2699 12.381L36.8889 11.9365L36.4445 11.4921L36.0635 11.1111L35.6191 10.7302L35.1746 10.3492L34.6667 10.0317L34.2222 9.71429L33.7143 9.46032L33.2064 9.14286L32.6349 8.95238L32.127 8.69841L31.5556 8.50794L30.9841 8.38095L30.4127 8.25397L29.7778 8.12698L29.2064 8.06349L28.5714 8H28H27.3651L26.7302 8.06349L26.1587 8.12698L25.5238 8.25397L24.9524 8.38095L24.381 8.50794L23.8095 8.69841L23.3016 8.95238L22.7302 9.14286L22.2222 9.46032L21.7143 9.71429L21.2699 10.0317L20.7619 10.3492L20.3175 10.7302L19.873 11.1111L19.4921 11.4921L19.0476 11.9365L18.6667 12.381L18.3492 12.8254L18.0318 13.2698L17.7143 13.7778L17.3968 14.2857L17.1429 14.7936L16.8889 15.3016L16.6984 15.873L16.508 16.4444L16.3175 17.0159L16.1905 17.5873L16.0635 18.1587L16 18.7302V19.3651L15.9365 20L16 20.5714V21.2063L16.0635 21.8413L16.1905 22.4127L16.3175 22.9841L16.508 23.5556L16.6984 24.127L16.8889 24.6349L17.1429 25.2063L17.3968 25.7143L17.7143 26.2222L18.0318 26.7302L18.3492 27.1746L18.6667 27.619L19.0476 28.0635L19.4921 28.5079L19.873 28.8889L20.3175 29.2698L20.7619 29.6508L21.2699 29.9683L21.7143 30.2857L22.2222 30.5397L22.7302 30.7936L23.3016 31.0476L23.8095 31.3016L24.381 31.4921L24.9524 31.619L25.5238 31.746L26.1587 31.873L26.7302 31.9365L27.3651 32H28Z" fill="#0594CC"/>
<path d="M20 10.9841L19.873 11.1111L19.4921 11.492L19.0476 11.9365L18.6667 12.3809L18.3492 12.8253L18.0318 13.2698L17.7143 13.7777L17.3968 14.2857L17.1429 14.7936L16.8889 15.3015L16.6984 15.873L16.508 16.4444L16.3175 17.0158L16.1905 17.5872L16.0635 18.1587L16 18.7301V19.365L15.9365 19.9999L16 20.5714V21.2063L16.0635 21.8412L16.1905 22.4126L16.3175 22.9841L16.508 23.5555L16.6984 24.1269L16.8889 24.6349L17.1429 25.2063L17.3968 25.7142L17.7143 26.2222L18.0318 26.7301L18.3492 27.1745L18.6667 27.619L19.0476 28.0634L19.4921 28.5079L19.873 28.8888L20.3175 29.2698L20.7619 29.6507L21.2699 29.9682L21.7143 30.2857L22.2222 30.5396L22.7302 30.7936L23.3016 31.0476L23.8095 31.3015L24.381 31.492L24.9524 31.619L25.5238 31.746L26.1587 31.873L26.7302 31.9365L27.3651 31.9999H28H28.5714L29.2064 31.9365L29.7778 31.873L30.4127 31.746L30.9841 31.619L31.5556 31.492L32.127 31.3015L32.6349 31.0476L33.2064 30.7936L33.7143 30.5396L34.2222 30.2857L34.6667 29.9682L35.1746 29.6507L35.6191 29.2698L36.0635 28.8888L36.4445 28.5079L36.8889 28.0634L36.9524 27.9365L20 10.9841Z" fill="#027DBA"/>
<path d="M12.0635 32H12.6349L13.2698 31.9365L13.8413 31.873L14.4762 31.746L15.0476 31.619L15.619 31.4921L16.1905 31.3016L16.6984 31.0476L17.2698 30.7936L17.7778 30.5397L18.2857 30.2857L18.7302 29.9683L19.2381 29.6508L19.6825 29.2698L20.127 28.8889L20.5079 28.5079L20.9524 28.0635L21.3333 27.619L21.6508 27.1746L21.9683 26.7302L22.2857 26.2222L22.6032 25.7143L22.8571 25.2063L23.1111 24.6349L23.3016 24.127L23.4921 23.5556L23.6825 22.9841L23.8095 22.4127L23.9365 21.8413L24 21.2063V20.5714L24.0635 20L24 19.3651V18.7302L23.9365 18.1587L23.8095 17.5873L23.6825 17.0159L23.4921 16.4444L23.3016 15.873L23.1111 15.3016L22.8571 14.7936L22.6032 14.2857L22.2857 13.7778L21.9683 13.2698L21.6508 12.8254L21.3333 12.381L20.9524 11.9365L20.5079 11.4921L20.127 11.1111L19.6825 10.7302L19.2381 10.3492L18.7302 10.0317L18.2857 9.71429L17.7778 9.46032L17.2698 9.14286L16.6984 8.95238L16.1905 8.69841L15.619 8.50794L15.0476 8.38095L14.4762 8.25397L13.8413 8.12698L13.2698 8.06349L12.6349 8H12.0635H11.4286L10.7937 8.06349L10.2222 8.12698L9.5873 8.25397L9.01587 8.38095L8.44444 8.50794L7.87302 8.69841L7.36508 8.95238L6.79365 9.14286L6.28571 9.46032L5.77778 9.71429L5.33333 10.0317L4.8254 10.3492L4.38095 10.7302L3.93651 11.1111L3.55556 11.4921L3.11111 11.9365L2.73016 12.381L2.4127 12.8254L2.03175 13.2698L1.71429 13.7778L1.46032 14.2857L1.20635 14.7936L0.952381 15.3016L0.761905 15.873L0.571429 16.4444L0.380952 17.0159L0.253968 17.5873L0.126984 18.1587L0.0634921 18.7302L0 19.3651V20V20.5714L0.0634921 21.2063L0.126984 21.8413L0.253968 22.4127L0.380952 22.9841L0.571429 23.5556L0.761905 24.127L0.952381 24.6349L1.20635 25.2063L1.46032 25.7143L1.71429 26.2222L2.03175 26.7302L2.4127 27.1746L2.73016 27.619L3.11111 28.0635L3.55556 28.5079L3.93651 28.8889L4.38095 29.2698L4.8254 29.6508L5.33333 29.9683L5.77778 30.2857L6.28571 30.5397L6.79365 30.7936L7.36508 31.0476L7.87302 31.3016L8.44444 31.4921L9.01587 31.619L9.5873 31.746L10.2222 31.873L10.7937 31.9365L11.4286 32H12.0635Z" fill="#1F4789"/>
<path d="M15.619 31.492L16.1905 31.3016L16.6984 31.0476L17.2698 30.7936L17.7778 30.5397L18.2857 30.2857L18.7302 29.9682L19.2381 29.6508L19.6825 29.2698L19.9365 29.0159L2.98413 12.0635L2.73016 12.3809L2.4127 12.8254L2.03175 13.2698L1.71429 13.7778L1.46032 14.2857L1.20635 14.7936L0.952381 15.3016L0.761905 15.873L0.571429 16.4444L0.380952 17.0159L0.253968 17.5873L0.126984 18.1587L0.0634921 18.7301L0 19.3651V20V20.5714L0.0634921 21.2063L0.126984 21.8413L0.253968 22.4127L0.380952 22.9841L0.571429 23.5555L0.761905 24.127L0.952381 24.6349L1.20635 25.2063L1.46032 25.7143L1.71429 26.2222L2.03175 26.7301L2.4127 27.1746L2.73016 27.619L3.11111 28.0635L3.55556 28.5079L3.93651 28.8889L4.38095 29.2698L4.8254 29.6508L5.33333 29.9682L5.77778 30.2857L6.28571 30.5397L6.79365 30.7936L7.36508 31.0476L7.87302 31.3016L8.44444 31.492L9.01587 31.619L9.5873 31.746L10.2222 31.873L10.7937 31.9365L11.4286 32H12.0635H12.6349L13.2698 31.9365L13.8413 31.873L14.4762 31.746L15.0476 31.619L15.619 31.492Z" fill="#3F6FBC"/>
<path d="M18.5396 12.5715H24.6348V11.873H19.111L18.5396 12.5715Z" fill="#0594CC"/>
<path d="M17.5872 13.9682H22.73L22.0951 13.3333H17.9681L17.5872 13.9682Z" fill="#027DBA"/>
<path d="M16.8254 15.4286H23.3651V14.7302H17.2064L16.8254 15.4286Z" fill="#027DBA"/>
<path d="M16.3809 16.8254H24.6348V16.1904H16.5713L16.3809 16.8254Z" fill="#027DBA"/>
<path d="M16.0635 18.2857H24.6349V17.5873H16.1905L16.0635 18.2857Z" fill="#027DBA"/>
<path d="M15.9365 19.6825H24.6349V19.0476H16L15.9365 19.6825Z" fill="#027DBA"/>
<path d="M16 21.1429H24.6349V20.4445H15.9365L16 21.1429Z" fill="#027DBA"/>
<path d="M16.2542 22.5397H24.6351V21.8412H16.1272L16.2542 22.5397Z" fill="#027DBA"/>
<path d="M16.6351 23.9365H24.635V23.3016H16.4446L16.6351 23.9365Z" fill="#027DBA"/>
<path d="M17.2699 25.3968H24.6349V24.6984H16.8889L17.2699 25.3968Z" fill="#027DBA"/>
<path d="M18.0951 26.8572H24.6348V26.1588H17.6506L18.0951 26.8572Z" fill="#027DBA"/>
<path d="M19.2382 28.254H24.635V27.5556H18.6667L19.2382 28.254Z" fill="#027DBA"/>
<path d="M38.2222 23.4286L38.1587 23.2381L38.0952 23.1111L38.0317 23.0476L37.9682 22.9841L37.8413 22.9207H37.7778H37.6508H37.5873H37.5238H37.3968H37.3333L37.2063 22.9841L37.1429 23.0476V23.1111L37.0794 23.2381L37.0159 23.3651V23.4286V23.4921V23.5556V23.6191V23.6826V23.7461L37.1429 23.8095L37.2063 23.873L37.2698 23.9365L37.3968 24H37.4603H37.5238H37.6508H37.7143H37.7778H37.9048H37.9682H38.0317L38.0952 23.9365L38.1587 23.873L38.2222 23.8095L38.2857 23.6826L38.3492 23.5556V23.4921V23.4286H38.2222ZM38.0952 23.4921V23.5556V23.6191L38.0317 23.6826L37.9682 23.8095L37.9048 23.873H37.7778H37.7143H37.6508H37.5873H37.5238H37.4603L37.3333 23.8095L37.2698 23.7461L37.2063 23.6826V23.6191V23.5556V23.4921V23.4286L37.2698 23.3651V23.3016L37.3333 23.2381L37.3968 23.1746H37.4603H37.5238H37.5873H37.6508H37.7143L37.7778 23.2381L37.8413 23.3016L37.9048 23.3651L37.9682 23.4286V23.4921H38.0952Z" fill="white"/>
<path d="M37.8412 23.4921L37.9047 23.3651V23.3016V23.2381V23.1746V23.1111L37.7777 23.1746H37.7142H37.3967V23.7461H37.5872V23.5556H37.6507L37.7777 23.7461H37.9682L37.8412 23.4921ZM37.7142 23.3651L37.5237 23.4286V23.3651H37.7142Z" fill="white"/>
<path d="M34.0952 18.7937V18.7302L34.1587 18.6032L34.2222 18.5397L34.2857 18.4762H34.3492L34.4127 18.4127L34.5397 18.3492H34.6667L34.7936 18.2857H34.9206H35.2381H35.5555H35.873L36.4444 18.3492H36.6984L37.0794 16.8254L36.3174 16.6984L35.2381 16.6349H34.7936H34.4127H34.2222L34.0952 16.6984L33.7778 16.7619H33.5873L33.4603 16.8254H33.3333L33.2063 16.8889L33.0794 16.9524L32.8889 17.0794L32.7619 17.1429L32.6984 17.2064L32.5714 17.2699L32.4444 17.3969L32.3809 17.5238L32.254 17.7143L32.1905 17.7778L32.127 17.9683L32.0635 18.0953L32 18.3492L31.9365 18.6032V18.8572L31.873 19.1111V19.3016L31.9365 19.4921L32 19.6826V19.8096L32.0635 19.9365L32.1905 20.127L32.254 20.1905L32.3809 20.3175L32.4444 20.4445L32.5714 20.508L32.6984 20.6349L32.8254 20.6984L32.9524 20.7619L33.0794 20.8254L33.8413 21.1429L34.0952 21.2064L34.1587 21.2699L34.2857 21.3334L34.3492 21.3969L34.4127 21.4603V21.5238L34.4762 21.5873V21.6508V21.7143V21.8413V21.9683L34.4127 22.0953L34.3492 22.1588L34.2857 22.2857L34.1587 22.3492H34.0952L34.0317 22.4127H33.9682L33.7778 22.4762H33.5873H33.2063H32.9524L32.3174 22.3492L31.8095 22.2857L31.3651 22.1588L31.0476 23.6826L31.4286 23.8096L31.9365 23.9365L32.7619 24H33.8413H34.0952H34.4127L34.6667 23.9365L34.8571 23.873H34.9841L35.2381 23.8096L35.3016 23.7461L35.4286 23.6826L35.6825 23.5556L35.873 23.4286L35.9365 23.3651L36.0635 23.3016L36.127 23.1746L36.1905 23.1111L36.3174 22.9842L36.3809 22.8572L36.4444 22.7302L36.5079 22.6667V22.4762L36.5714 22.3492L36.6349 22.2222V22.0953L36.6984 21.9048V21.7143V21.5238V21.3334L36.6349 21.1429V20.9524L36.5714 20.8254L36.5079 20.6984V20.5715L36.3809 20.4445L36.3174 20.381L36.254 20.254L36.1905 20.1905L36.0635 20.127L35.873 20L35.746 19.9365L35.6825 19.873L35.4286 19.8096L34.9841 19.6826L34.7301 19.5556L34.6032 19.4921L34.4127 19.4286L34.2857 19.3016L34.2222 19.2381L34.1587 19.1746V19.0476L34.0952 18.9842V18.9207V18.8572V18.7937Z" fill="white"/>
<path d="M10.1587 23.9365V24H12.4444L13.6508 16.9524V16.8889H11.365L10.1587 23.9365Z" fill="white"/>
<path d="M29.0792 16.8889L28.5712 20.508L28.5077 20.6349L28.4442 20.8254L28.3808 21.0159L28.3173 21.1429L28.2538 21.2699L28.1268 21.3968L28.0633 21.4603L27.9363 21.5873L27.8093 21.6508L27.6823 21.7143L27.5554 21.7778H27.4284L27.3014 21.8413H27.0474H26.9839H26.8569H26.7935H26.6665L26.603 21.7778L26.5395 21.7143H26.476L26.4125 21.6508L26.349 21.5238L26.2855 21.4603L26.222 21.3968V21.2699L26.1585 21.1429V21.0159V20.8889V20.6984L26.73 16.8889H24.5077L23.8728 21.0159L23.8093 21.3333V21.4603V21.6508V21.7778V21.9048L23.8728 22.0953L23.9363 22.3492V22.4762L23.9998 22.7302L24.1268 22.9206L24.2538 23.1746L24.3173 23.2381L24.3808 23.3651L24.5712 23.4921L24.6347 23.6191L24.6982 23.6826L24.8252 23.746L25.0157 23.8095L25.0792 23.873L25.2062 23.9365H25.2696L25.3966 24H25.5236H25.5871H25.8411H26.2855L26.5395 23.9365H26.73L27.0474 23.873L27.2379 23.8095L27.4284 23.746L27.5554 23.6191L27.7458 23.4921L27.9998 23.3016L28.1903 23.0476L28.0633 24H30.2855L31.3649 16.8889H29.0792Z" fill="white"/>
<path d="M10.6665 15.4286L9.65067 15.1111L9.20623 15.0476L8.82528 14.9841L8.38083 14.9207H7.99988L7.8094 14.9841H7.55543L7.30147 15.0476H7.11099L6.85702 15.1111L6.66655 15.1746L6.47607 15.2381L6.28559 15.3016L6.09512 15.3651L5.90464 15.4921L5.71417 15.5556L5.58718 15.6826L5.39671 15.8095L5.26972 15.9365L5.07924 16.0635L4.95226 16.1905L4.82528 16.381L4.69829 16.508L4.57131 16.6984L4.44432 16.8889L4.31734 17.0794L4.25385 17.2699L4.12686 17.4603L4.06337 17.6508L3.93639 17.9048L3.8729 18.0953L3.74591 18.6032L3.61893 19.1746L3.55544 19.4286L3.49194 19.6826V20V20.254V20.508V20.7619V20.9524L3.55544 21.2064V21.3968L3.61893 21.5873L3.68242 21.8413L3.74591 22.0318L3.8729 22.2222L3.93639 22.3492L4.06337 22.5397L4.12686 22.6667L4.25385 22.8572L4.38083 22.9841L4.50782 23.1111L4.6348 23.2381L4.76178 23.3016L4.88877 23.4286L5.07924 23.5556L5.20623 23.6191L5.33321 23.6826L5.52369 23.7461L5.65067 23.8095L5.77766 23.873L5.96813 23.9365H6.09512L6.28559 24H6.41258L6.79353 24.0635H7.11099H7.42845H7.8729L8.19036 24L8.38083 23.9365H8.50782L8.82528 23.8095L8.95226 23.7461L9.20623 23.5556L9.58718 21.6508L9.39671 21.7778L9.26972 21.9048L9.14274 21.9683L8.95226 22.0318L8.88877 22.0953L8.76178 22.1588L8.50782 22.2222H8.12686L7.99988 22.2857L7.68242 22.2222H7.17448L6.92051 22.1588L6.73004 22.0318L6.47607 21.9683L6.34909 21.8413L6.15861 21.7143L6.03163 21.5238L5.90464 21.3968L5.84115 21.2064L5.77766 21.0159L5.71417 20.8254L5.65067 20.5714V20.381V20.1905V19.9365V19.6826L5.71417 19.4921L5.84115 19.0476L5.90464 18.6667L6.09512 18.3492L6.15861 18.1587L6.2221 18.0318L6.34909 17.7778L6.41258 17.6508L6.53956 17.5873L6.60305 17.4603L6.66655 17.3968L6.79353 17.3334L6.98401 17.2064L7.0475 17.1429L7.23797 17.0159H7.30147L7.49194 16.9524H7.61893L7.68242 16.8889H8.06337L8.57131 16.8254L8.82528 16.8889L9.20623 16.9524L9.65067 17.0794L9.96813 17.2064L10.3491 17.3968L10.6665 15.4286Z" fill="white"/>
<path d="M18.6665 18.9206L19.3014 16.7619H19.0474H18.73H18.5395L18.2855 16.8254L17.9681 16.8889L17.6506 17.0794L17.5236 17.1429L17.3966 17.2063L17.2697 17.3333L17.1427 17.4603L16.9522 17.6508L17.0157 16.8254H15.0474H14.9839L13.7776 23.9365V24H16.0633L16.8887 19.6825L16.9522 19.619L17.0157 19.4921L17.0792 19.4286L17.1427 19.3016L17.2062 19.2381L17.2697 19.1746L17.3331 19.1111L17.4601 18.9841L17.5871 18.9206H17.6506L17.8411 18.8571L18.0316 18.7936H18.1585H18.222L18.603 18.8571L18.6665 18.9206Z" fill="white"/>
<path d="M23.8729 16.7619H23.5554H23.3649L23.111 16.8254L22.857 16.8889L22.6665 16.9524L22.5396 17.0159L22.4126 17.0794L22.2221 17.2063L22.0316 17.3333L21.9046 17.4603L21.7142 17.6508L21.8411 16.8254H21.7776H19.8729H19.8094L18.603 23.9365L18.5396 24H20.8253L21.7142 19.6825V19.619L21.7776 19.4921L21.8411 19.4286L21.9046 19.3016L21.9681 19.2381L22.0316 19.1746L22.1586 19.1111L22.2221 19.0476L22.2856 18.9841L22.3491 18.9206H22.4761L22.603 18.8571L22.857 18.7936H22.9205H23.0475L23.4284 18.8571L23.4919 18.9206L24.1269 16.7619H23.8729Z" fill="white"/>
</svg>
