<svg width="16" height="16" viewBox="0 0 16 16" fill="none" xmlns="http://www.w3.org/2000/svg">
<g clip-path="url(#clip0_138_26)">
<path d="M9.41268 9.41333C9.22958 9.60983 9.00878 9.76744 8.76345 9.87675C8.51812 9.98606 8.25328 10.0448 7.98474 10.0496C7.7162 10.0543 7.44946 10.0049 7.20042 9.90433C6.95139 9.80374 6.72516 9.65402 6.53525 9.4641C6.34533 9.27419 6.19561 9.04796 6.09502 8.79893C5.99443 8.54989 5.94503 8.28315 5.94977 8.01461C5.95451 7.74607 6.01329 7.48123 6.1226 7.2359C6.23191 6.99057 6.38952 6.76977 6.58602 6.58667M11.9593 11.96C10.8197 12.8287 9.43209 13.3099 7.99935 13.3333C3.33268 13.3333 0.666016 8 0.666016 8C1.49528 6.4546 2.64544 5.10441 4.03935 4.04L11.9593 11.96ZM6.59935 2.82667C7.05824 2.71925 7.52806 2.66556 7.99935 2.66667C12.666 2.66667 15.3327 8 15.3327 8C14.928 8.75707 14.4454 9.46982 13.8927 10.1267L6.59935 2.82667Z" stroke="#828282" stroke-width="1.5" stroke-linecap="round" stroke-linejoin="round"/>
<path d="M0.666016 0.666667L15.3327 15.3333" stroke="#828282" stroke-width="1.5" stroke-linecap="round" stroke-linejoin="round"/>
</g>
<defs>
<clipPath id="clip0_138_26">
<rect width="16" height="16" fill="white"/>
</clipPath>
</defs>
</svg>
