<svg width="40" height="40" viewBox="0 0 40 40" fill="none" xmlns="http://www.w3.org/2000/svg">
<path d="M5.48387 5.58063C2.3871 5.58063 0 7.58066 0 11.0646V21.0002C0.258065 22.2261 1.54839 23.1293 2.96774 23.1293C4.58065 23.1293 5.74194 21.968 5.74194 20.5486V15.5163H10.129V20.4841C10.129 23.2583 6.58064 24.6777 4 24.6777C2.51613 24.6777 1.09677 24.2261 0.0645161 23.4519V34.4198H7.03226C9.48387 34.4198 12.3226 32.0972 12.3226 29.1294V5.58063H5.48387Z" fill="#1174CE"/>
<path d="M0 11.0646V21.0002C0.258065 22.2261 1.54839 23.1293 2.96774 23.1293C4.58065 23.1293 5.74194 21.968 5.74194 20.5486V15.5163H10.129V20.4841C10.129 23.2583 6.58064 24.6777 4 24.6777C2.51613 24.6777 1.09677 24.2261 0.0645161 23.4519V34.4198H7.03226C9.48387 34.4198 12.3226 32.0972 12.3226 29.1294V5.58063" fill="#0F549D"/>
<path d="M10.0645 15.5161V20.4839C10.0645 23.258 6.51613 24.6774 3.93548 24.6774C2.45161 24.6774 1.03226 24.2258 0 23.4516V34.4193H6.96774C9.41935 34.4193 12.2581 32.0968 12.2581 29.129" fill="#02375E"/>
<path d="M29.8708 23H32.9031C33.6773 23 34.387 22.2904 34.387 21.5162C34.387 20.742 33.6773 20.0323 32.9031 20.0323H29.8708V23Z" fill="#146643"/>
<path d="M33.2903 5.58063C30.129 5.58063 27.8065 7.58066 27.8065 11.0001V15.5163H35.9355C37.0968 15.5163 38.0645 16.484 38.0645 17.6453C38.0645 18.8067 37.0968 19.7744 35.9355 19.7744C37.2258 19.7744 38.2581 20.6777 38.2581 21.839C38.2581 23.0003 37.2903 23.9035 35.9355 23.9035H27.7419V34.4198H34.7097C37.1613 34.4198 40 32.0972 40 29.1294V5.58063H33.2903Z" fill="#1BCC38"/>
<path d="M27.7419 11.0646V15.5163H35.871C37.0323 15.5163 38 16.484 38 17.6453C38 18.8067 37.0323 19.7744 35.871 19.7744C37.1613 19.7744 38.1936 20.6777 38.1936 21.839C38.1936 23.0003 37.2258 23.9035 35.871 23.9035H27.7419V34.4198H34.7097C37.1613 34.4198 40 32.0972 40 29.1294V5.58063" fill="#329947"/>
<path d="M38 17.6452C38 18.8065 37.0323 19.7742 35.871 19.7742C37.1613 19.7742 38.1936 20.6775 38.1936 21.8388C38.1936 23 37.2258 23.9033 35.871 23.9033H27.7419V34.4194H34.7097C37.1613 34.4194 40 32.0968 40 29.1291" fill="#146643"/>
<path d="M34.3225 17.9032C34.3225 17.129 33.6128 16.4194 32.8386 16.4194H29.8708V19.3226H32.9031C33.6773 19.3226 34.3225 18.6774 34.3225 17.9032Z" fill="#146643"/>
<path d="M19.2903 5.58063C16.129 5.58063 13.8064 7.58066 13.8064 11.0001V16.5486C14.5806 15.9034 15.5483 15.4518 16.5806 15.4518H23.9354V17.0002C22.1935 16.6131 20.5161 16.4195 19.6774 16.4195C17.8709 16.4195 16.387 17.9034 16.387 19.7099C16.387 21.5164 17.8709 23.0003 19.6774 23.0003C20.5161 23.0003 22.1935 22.8712 23.9354 22.4841V23.9035H16.5806C15.5483 23.9035 14.5161 23.5164 13.8064 22.8067V34.4198H20.7741C23.2258 34.4198 26.0645 32.0972 26.0645 29.1294V5.58063H19.2903Z" fill="#E20E37"/>
<path d="M13.8064 11.0646V16.6131C14.5806 15.9679 15.5483 15.5163 16.5806 15.5163H23.9354V17.0647C22.1935 16.6776 20.5161 16.484 19.6774 16.484C17.8709 16.484 16.387 17.9679 16.387 19.7744C16.387 21.5809 17.8709 23.0648 19.6774 23.0648C20.5161 23.0648 22.1935 22.9358 23.9354 22.5487V23.9035H16.5806C15.5483 23.9035 14.5161 23.5164 13.8064 22.8067V34.4198H20.7741C23.2258 34.4198 26.0645 32.0972 26.0645 29.1294V5.58063" fill="#B41F36"/>
<path d="M23.9354 15.5161V17.0645C22.1935 16.6774 20.5161 16.4839 19.6774 16.4839C17.8709 16.4839 16.387 17.9677 16.387 19.7742C16.387 21.5806 17.8709 23.0645 19.6774 23.0645C20.5161 23.0645 22.1935 22.9355 23.9354 22.5484V23.9032H16.5806C15.5483 23.9032 14.5161 23.5161 13.8064 22.8064V34.4193H20.7741C23.2258 34.4193 26.0645 32.0968 26.0645 29.129" fill="#720A1E"/>
</svg>
