<svg width="40" height="40" viewBox="0 0 40 40" fill="none" xmlns="http://www.w3.org/2000/svg">
<path d="M40 20C40 26.6032 34.6666 32 28 32C21.3968 32 16 26.6032 16 20C16 13.3968 21.3333 8 27.9365 8C34.6666 8 40 13.3968 40 20Z" fill="#FFB600"/>
<path d="M28 8C34.6031 8 40 13.3968 40 20C40 26.6032 34.6666 32 28 32C21.3968 32 16 26.6032 16 20" fill="#F7981D"/>
<path d="M28.0002 8C34.6034 8 40.0002 13.3968 40.0002 20C40.0002 26.6032 34.6669 32 28.0002 32" fill="#FF8500"/>
<path d="M11.873 8C5.33333 8.06349 0 13.3968 0 20C0 26.6032 5.33333 32 12 32C15.1111 32 17.9048 30.7936 20.0635 28.8889C20.5079 28.5079 20.8889 28.0635 21.2698 27.619H18.7937C18.4762 27.2381 18.1587 26.7936 17.9048 26.4127H22.1587C22.4127 26.0317 22.6667 25.5873 22.8571 25.1428H17.2064C17.0159 24.7619 16.8254 24.3174 16.6984 23.873H23.3016C23.6825 22.6667 23.9365 21.3968 23.9365 20.0635C23.9365 19.1746 23.8095 18.3492 23.6825 17.5238H16.3175C16.381 17.0794 16.5079 16.6984 16.6349 16.254H23.2381C23.1111 15.8095 22.9206 15.3651 22.7302 14.9841H17.1429C17.3333 14.5397 17.5873 14.1587 17.8413 13.7143H22.0952C21.8413 13.2698 21.5238 12.8254 21.1429 12.4444H18.7937C19.1746 12 19.5556 11.619 20 11.2381C17.9048 9.26984 15.0476 8.12698 11.9365 8.12698C11.9365 8 11.9365 8 11.873 8Z" fill="#FF5050"/>
<path d="M0 20C0 26.6032 5.33333 32 12 32C15.1111 32 17.9048 30.7937 20.0635 28.8889C20.5079 28.508 20.8889 28.0635 21.2698 27.6191H18.7937C18.4762 27.2381 18.1587 26.7937 17.9048 26.4127H22.1587C22.4127 26.0318 22.6667 25.5873 22.8571 25.1429H17.2064C17.0159 24.7619 16.8254 24.3175 16.6984 23.8731H23.3016C23.6825 22.6667 23.9365 21.3969 23.9365 20.0635C23.9365 19.1746 23.8095 18.3492 23.6825 17.5238H16.3175C16.381 17.0794 16.5079 16.6984 16.6349 16.254H23.2381C23.1111 15.8096 22.9206 15.3651 22.7302 14.9842H17.1429C17.3333 14.5397 17.5873 14.1588 17.8413 13.7143H22.0952C21.8413 13.2699 21.5238 12.8254 21.1429 12.4445H18.7937C19.1746 12 19.5556 11.6191 20 11.2381C17.9048 9.26987 15.0476 8.12701 11.9365 8.12701H11.873" fill="#E52836"/>
<path d="M12 32C15.1111 32 17.9048 30.7937 20.0635 28.8889C20.508 28.508 20.8889 28.0635 21.2699 27.6191H18.7937C18.4762 27.2381 18.1588 26.7937 17.9048 26.4127H22.1588C22.4127 26.0318 22.6667 25.5873 22.8572 25.1429H17.2064C17.0159 24.7619 16.8254 24.3175 16.6984 23.8731H23.3016C23.6826 22.6667 23.9365 21.3969 23.9365 20.0635C23.9365 19.1746 23.8096 18.3492 23.6826 17.5238H16.3175C16.381 17.0794 16.508 16.6984 16.635 16.254H23.2381C23.1111 15.8096 22.9207 15.3651 22.7302 14.9842H17.1429C17.3334 14.5397 17.5873 14.1588 17.8413 13.7143H22.0953C21.8413 13.2699 21.5238 12.8254 21.1429 12.4445H18.7937C19.1746 12 19.5556 11.6191 20 11.2381C17.9048 9.26987 15.0476 8.12701 11.9365 8.12701H11.873" fill="#CB2026"/>
<path d="M16.2544 23.0476L16.4448 21.9683C16.3813 21.9683 16.2544 22.0318 16.1274 22.0318C15.6829 22.0318 15.6194 21.7778 15.6829 21.6508L16.0639 19.4286H16.7623L16.9528 18.2222H16.3178L16.4448 17.4603H15.175C15.175 17.4603 14.4131 21.6508 14.4131 22.1587C14.4131 22.9206 14.8575 23.2381 15.429 23.2381C15.8099 23.2381 16.1274 23.1111 16.2544 23.0476Z" fill="white"/>
<path d="M16.6987 21.0159C16.6987 22.7936 17.9051 23.2381 18.921 23.2381C19.8733 23.2381 20.2543 23.0476 20.2543 23.0476L20.5083 21.8413C20.5083 21.8413 19.8098 22.1587 19.1749 22.1587C17.7781 22.1587 18.0321 21.1429 18.0321 21.1429H20.6352C20.6352 21.1429 20.8257 20.3175 20.8257 20C20.8257 19.1746 20.3813 18.1587 18.9844 18.1587C17.6511 18.0317 16.6987 19.4286 16.6987 21.0159ZM18.921 19.1746C19.6194 19.1746 19.4924 20 19.4924 20.0635H18.0956C18.0956 20 18.2225 19.1746 18.921 19.1746Z" fill="white"/>
<path d="M26.9843 23.0476L27.2382 21.6508C27.2382 21.6508 26.6033 21.9683 26.1589 21.9683C25.27 21.9683 24.889 21.2699 24.889 20.508C24.889 18.9842 25.6509 18.1588 26.5398 18.1588C27.1747 18.1588 27.6827 18.5397 27.6827 18.5397L27.8731 17.2064C27.8731 17.2064 27.1112 16.8889 26.4128 16.8889C24.9525 16.8889 23.4922 18.1588 23.4922 20.5715C23.4922 22.1588 24.2541 23.2381 25.7779 23.2381C26.2858 23.2381 26.9843 23.0476 26.9843 23.0476Z" fill="white"/>
<path d="M9.27012 18.0318C8.38123 18.0318 7.74631 18.2858 7.74631 18.2858L7.55583 19.3651C7.55583 19.3651 8.12726 19.1112 8.95266 19.1112C9.3971 19.1112 9.77805 19.1747 9.77805 19.5556C9.77805 19.8096 9.71456 19.8731 9.71456 19.8731C9.71456 19.8731 9.33361 19.8731 9.14313 19.8731C8.06377 19.8731 6.85742 20.3175 6.85742 21.7778C6.85742 22.9207 7.61933 23.1747 8.06377 23.1747C8.95266 23.1747 9.33361 22.6032 9.3971 22.6032L9.33361 23.1112H10.4765L10.9844 19.6191C10.9844 18.0953 9.71456 18.0318 9.27012 18.0318ZM9.52408 20.8889C9.52408 21.0794 9.3971 22.0953 8.6352 22.0953C8.25424 22.0953 8.12726 21.7778 8.12726 21.5874C8.12726 21.2699 8.31774 20.8254 9.27012 20.8254C9.46059 20.8889 9.52408 20.8889 9.52408 20.8889Z" fill="white"/>
<path d="M12.1905 23.1746C12.508 23.1746 14.0953 23.2381 14.0953 21.5238C14.0953 19.9365 12.5715 20.254 12.5715 19.6191C12.5715 19.3016 12.8255 19.1746 13.2699 19.1746C13.4604 19.1746 14.1588 19.2381 14.1588 19.2381L14.3493 18.0952C14.3493 18.0952 13.9048 17.9683 13.1429 17.9683C12.1905 17.9683 11.2382 18.3492 11.2382 19.6191C11.2382 21.0794 12.8255 20.9524 12.8255 21.5238C12.8255 21.9048 12.381 21.9683 12.0636 21.9683C11.4921 21.9683 10.9207 21.7778 10.9207 21.7778L10.7302 22.9206C10.7937 23.0476 11.1112 23.1746 12.1905 23.1746Z" fill="white"/>
<path d="M37.5243 17.0159L37.2704 18.7302C37.2704 18.7302 36.7624 18.0952 36.064 18.0952C34.9211 18.0952 33.9053 19.4921 33.9053 21.1429C33.9053 22.1587 34.4132 23.2381 35.4926 23.2381C36.2545 23.2381 36.6989 22.7302 36.6989 22.7302L36.6354 23.1746H37.9053L38.8577 17.0794L37.5243 17.0159ZM36.9529 20.3809C36.9529 21.0794 36.6354 21.9682 35.937 21.9682C35.4926 21.9682 35.2386 21.5873 35.2386 20.9524C35.2386 19.9365 35.683 19.3016 36.2545 19.3016C36.6989 19.3016 36.9529 19.619 36.9529 20.3809Z" fill="white"/>
<path d="M2.34942 23.1111L3.11132 18.5397L3.2383 23.1111H4.12719L5.77799 18.5397L5.07957 23.1111H6.41291L7.42878 17.0159H5.33354L4.0637 20.7619L4.00021 17.0159H2.15894L1.14307 23.1111H2.34942Z" fill="white"/>
<path d="M22.0318 23.1111C22.4128 21.0159 22.4763 19.3016 23.3652 19.6191C23.4922 18.7937 23.6826 18.4762 23.8096 18.1588C23.8096 18.1588 23.7461 18.1588 23.5556 18.1588C22.9842 18.1588 22.5398 18.9207 22.5398 18.9207L22.6668 18.2222H21.4604L20.635 23.1746H22.0318V23.1111Z" fill="white"/>
<path d="M29.9049 18.0318C29.016 18.0318 28.3811 18.2858 28.3811 18.2858L28.1906 19.3651C28.1906 19.3651 28.762 19.1112 29.5874 19.1112C30.0319 19.1112 30.4128 19.1747 30.4128 19.5556C30.4128 19.8096 30.3493 19.8731 30.3493 19.8731C30.3493 19.8731 29.9684 19.8731 29.7779 19.8731C28.6985 19.8731 27.4922 20.3175 27.4922 21.7778C27.4922 22.9207 28.2541 23.1747 28.6985 23.1747C29.5874 23.1747 29.9684 22.6032 30.0319 22.6032L29.9684 23.1112H31.1112L31.6192 19.6191C31.6827 18.0953 30.3493 18.0318 29.9049 18.0318ZM30.2223 20.8889C30.2223 21.0794 30.0954 22.0953 29.3335 22.0953C28.9525 22.0953 28.8255 21.7778 28.8255 21.5874C28.8255 21.2699 29.016 20.8254 29.9684 20.8254C30.1589 20.8889 30.1589 20.8889 30.2223 20.8889Z" fill="white"/>
<path d="M32.6986 23.1111C33.0795 21.0159 33.143 19.3016 34.0319 19.6191C34.1589 18.7937 34.3494 18.4762 34.4764 18.1588C34.4764 18.1588 34.4129 18.1588 34.2224 18.1588C33.651 18.1588 33.2065 18.9207 33.2065 18.9207L33.3335 18.2222H32.1272L31.3018 23.1746H32.6986V23.1111Z" fill="white"/>
<path d="M14.2859 22.1587C14.2859 22.9206 14.7303 23.2381 15.3018 23.2381C15.7462 23.2381 16.1272 23.1111 16.2541 23.0476L16.4446 21.9683C16.3811 21.9683 16.2541 22.0318 16.1272 22.0318C15.6827 22.0318 15.6192 21.7778 15.6827 21.6508L16.0637 19.4286H16.7621L16.9526 18.2222H16.3176L16.4446 17.4603" fill="#DCE5E5"/>
<path d="M17.3335 21.0159C17.3335 22.7936 17.9049 23.2381 18.9208 23.2381C19.8732 23.2381 20.2541 23.0476 20.2541 23.0476L20.5081 21.8413C20.5081 21.8413 19.8097 22.1587 19.1748 22.1587C17.7779 22.1587 18.0319 21.1429 18.0319 21.1429H20.6351C20.6351 21.1429 20.8256 20.3175 20.8256 20C20.8256 19.1746 20.3811 18.1587 18.9843 18.1587C17.651 18.0317 17.3335 19.4286 17.3335 21.0159ZM18.9208 19.1746C19.6192 19.1746 19.7462 20 19.7462 20.0635H18.0954C18.0954 20 18.2224 19.1746 18.9208 19.1746Z" fill="#DCE5E5"/>
<path d="M26.9843 23.0476L27.2383 21.6508C27.2383 21.6508 26.6034 21.9683 26.1589 21.9683C25.2701 21.9683 24.8891 21.2699 24.8891 20.508C24.8891 18.9842 25.651 18.1588 26.5399 18.1588C27.1748 18.1588 27.6828 18.5397 27.6828 18.5397L27.8732 17.2064C27.8732 17.2064 27.1113 16.8889 26.4129 16.8889C24.9526 16.8889 24.1272 18.1588 24.1272 20.5715C24.1272 22.1588 24.2542 23.2381 25.778 23.2381C26.2859 23.2381 26.9843 23.0476 26.9843 23.0476Z" fill="#DCE5E5"/>
<path d="M7.55583 19.4286C7.55583 19.4286 8.12726 19.1746 8.95266 19.1746C9.3971 19.1746 9.77805 19.2381 9.77805 19.6191C9.77805 19.873 9.71456 19.9365 9.71456 19.9365C9.71456 19.9365 9.33361 19.9365 9.14313 19.9365C8.06377 19.9365 6.85742 20.381 6.85742 21.8413C6.85742 22.9842 7.61933 23.2381 8.06377 23.2381C8.95266 23.2381 9.33361 22.6667 9.3971 22.6667L9.33361 23.1746H10.4765L10.9844 19.6826C10.9844 18.2222 9.71456 18.1588 9.20662 18.1588L7.55583 19.4286ZM10.159 20.8889C10.159 21.0794 9.3971 22.0953 8.6352 22.0953C8.25424 22.0953 8.12726 21.7778 8.12726 21.5873C8.12726 21.2699 8.31774 20.8254 9.27012 20.8254C9.46059 20.8889 10.159 20.8889 10.159 20.8889Z" fill="#DCE5E5"/>
<path d="M10.7937 23.0476C10.7937 23.0476 11.1747 23.1746 12.254 23.1746C12.5715 23.1746 14.1588 23.2381 14.1588 21.5238C14.1588 19.9365 12.635 20.254 12.635 19.6191C12.635 19.3016 12.8889 19.1746 13.3334 19.1746C13.5239 19.1746 14.2223 19.2381 14.2223 19.2381L14.4127 18.0952C14.4127 18.0952 13.9683 17.9683 13.2064 17.9683C12.254 17.9683 11.9366 18.3492 11.9366 19.6191C11.9366 21.0794 12.8889 20.9524 12.8889 21.5238C12.8889 21.9048 12.4445 21.9683 12.127 21.9683" fill="#DCE5E5"/>
<path d="M37.2699 18.7302C37.2699 18.7302 36.762 18.0953 36.0636 18.0953C34.9207 18.0953 34.5398 19.4921 34.5398 21.1429C34.5398 22.1588 34.4128 23.2381 35.4921 23.2381C36.254 23.2381 36.6985 22.7302 36.6985 22.7302L36.635 23.1746H37.9048L38.8572 17.0794L37.2699 18.7302ZM37.2064 20.381C37.2064 21.0794 36.635 21.9683 35.9366 21.9683C35.4921 21.9683 35.2382 21.5873 35.2382 20.9524C35.2382 19.9365 35.6826 19.3016 36.254 19.3016C36.6985 19.3016 37.2064 19.6191 37.2064 20.381Z" fill="#DCE5E5"/>
<path d="M2.34942 23.1111L3.11132 18.5397L3.2383 23.1111H4.12719L5.77799 18.5397L5.07957 23.1111H6.41291L7.42878 17.0159H5.84148L4.0637 20.7619L4.00021 17.0159H3.3018L1.14307 23.1111H2.34942Z" fill="#DCE5E5"/>
<path d="M20.6987 23.1111H22.0321C22.413 21.0159 22.4765 19.3016 23.3654 19.6191C23.4924 18.7937 23.6829 18.4762 23.8098 18.1588C23.8098 18.1588 23.7463 18.1588 23.5559 18.1588C22.9844 18.1588 22.54 18.9207 22.54 18.9207L22.667 18.2222" fill="#DCE5E5"/>
<path d="M28.1906 19.4286C28.1906 19.4286 28.762 19.1746 29.5874 19.1746C30.0319 19.1746 30.4128 19.2381 30.4128 19.6191C30.4128 19.873 30.3493 19.9365 30.3493 19.9365C30.3493 19.9365 29.9684 19.9365 29.7779 19.9365C28.6985 19.9365 27.4922 20.381 27.4922 21.8413C27.4922 22.9842 28.2541 23.2381 28.6985 23.2381C29.5874 23.2381 29.9684 22.6667 30.0319 22.6667L29.9684 23.1746H31.1112L31.6192 19.6826C31.6192 18.2222 30.3493 18.1588 29.8414 18.1588L28.1906 19.4286ZM30.7938 20.8889C30.7938 21.0794 30.0319 22.0953 29.27 22.0953C28.889 22.0953 28.762 21.7778 28.762 21.5873C28.762 21.2699 28.9525 20.8254 29.9049 20.8254C30.1589 20.8889 30.7938 20.8889 30.7938 20.8889Z" fill="#DCE5E5"/>
<path d="M31.3655 23.1111H32.6988C33.0798 21.0159 33.1433 19.3016 34.0321 19.6191C34.1591 18.7937 34.3496 18.4762 34.4766 18.1588C34.4766 18.1588 34.4131 18.1588 34.2226 18.1588C33.6512 18.1588 33.2067 18.9207 33.2067 18.9207L33.3337 18.2222" fill="#DCE5E5"/>
</svg>
