<svg width="40" height="40" viewBox="0 0 40 40" fill="none" xmlns="http://www.w3.org/2000/svg">
<path d="M30.9205 17.5555H28.7618C28.6348 17.5555 28.5078 17.6825 28.4443 17.8095L27.5554 23.3968C27.5554 23.5238 27.6189 23.5873 27.7459 23.5873H28.8888C29.0157 23.5873 29.0792 23.5238 29.0792 23.3968L29.3332 21.8095C29.3332 21.6825 29.4602 21.5556 29.6507 21.5556H30.3491C31.8094 21.5556 32.6348 20.8571 32.8253 19.4603C32.9522 18.8889 32.8253 18.3809 32.5713 18.0635C32.1903 17.746 31.6189 17.5555 30.9205 17.5555ZM31.1745 19.6508C31.0475 20.4127 30.4761 20.4127 29.9046 20.4127H29.5237L29.7776 18.9524C29.7776 18.8889 29.8411 18.8254 29.9681 18.8254H30.0951C30.4761 18.8254 30.857 18.8254 31.0475 19.0794C31.1745 19.1428 31.1745 19.3333 31.1745 19.6508Z" fill="#139AD6"/>
<path d="M15.3648 17.5555H13.2061C13.0791 17.5555 12.9521 17.6825 12.8886 17.8095L11.9998 23.3968C11.9998 23.5238 12.0632 23.5873 12.1902 23.5873H13.2061C13.3331 23.5873 13.4601 23.4603 13.5236 23.3333L13.7775 21.8095C13.7775 21.6825 13.9045 21.5556 14.095 21.5556H14.7934C16.2537 21.5556 17.0791 20.8571 17.2696 19.4603C17.3966 18.8889 17.2696 18.3809 17.0156 18.0635C16.6347 17.746 16.1267 17.5555 15.3648 17.5555ZM15.6188 19.6508C15.4918 20.4127 14.9204 20.4127 14.349 20.4127H14.0315L14.2855 18.9524C14.2855 18.8889 14.349 18.8254 14.4759 18.8254H14.6029C14.9839 18.8254 15.3648 18.8254 15.5553 19.0794C15.6188 19.1428 15.6823 19.3333 15.6188 19.6508Z" fill="#263B80"/>
<path d="M21.9045 19.5873H20.8886C20.8251 19.5873 20.6982 19.6508 20.6982 19.7143L20.6347 20.0318L20.5712 19.9048C20.3172 19.5873 19.8728 19.4603 19.3648 19.4603C18.222 19.4603 17.2061 20.3492 17.0156 21.5556C16.8886 22.1905 17.0791 22.7619 17.3966 23.1429C17.714 23.5238 18.1585 23.6508 18.7299 23.6508C19.6823 23.6508 20.1902 23.0794 20.1902 23.0794L20.1267 23.3968C20.1267 23.5238 20.1902 23.5873 20.3172 23.5873H21.2696C21.3966 23.5873 21.5235 23.4603 21.587 23.3334L22.1585 19.7778C22.095 19.7143 21.968 19.5873 21.9045 19.5873ZM20.4442 21.6191C20.3172 22.1905 19.8728 22.6349 19.2378 22.6349C18.9204 22.6349 18.6664 22.508 18.5394 22.381C18.4124 22.1905 18.3489 21.9365 18.3489 21.6191C18.4124 21.0476 18.9204 20.6032 19.4918 20.6032C19.8093 20.6032 19.9997 20.7302 20.1902 20.8572C20.3807 21.0476 20.4442 21.3651 20.4442 21.6191Z" fill="#263B80"/>
<path d="M37.3969 19.5873H36.381C36.3176 19.5873 36.1906 19.6508 36.1906 19.7143L36.1271 20.0318L36.0636 19.9048C35.8096 19.5873 35.3652 19.4603 34.8572 19.4603C33.7144 19.4603 32.6985 20.3492 32.508 21.5556C32.3811 22.1905 32.5715 22.7619 32.889 23.1429C33.2064 23.5238 33.6509 23.6508 34.2223 23.6508C35.1747 23.6508 35.6826 23.0794 35.6826 23.0794L35.6191 23.3968C35.6191 23.5238 35.6826 23.5873 35.8096 23.5873H36.762C36.889 23.5873 37.016 23.4603 37.0795 23.3334L37.6509 19.7778C37.5874 19.7143 37.5239 19.5873 37.3969 19.5873ZM35.9366 21.6191C35.8096 22.1905 35.3652 22.6349 34.7303 22.6349C34.4128 22.6349 34.1588 22.508 34.0318 22.381C33.9049 22.1905 33.8414 21.9365 33.8414 21.6191C33.9049 21.0476 34.4128 20.6032 34.9842 20.6032C35.3017 20.6032 35.4922 20.7302 35.6826 20.8572C35.9366 21.0476 36.0001 21.3651 35.9366 21.6191Z" fill="#139AD6"/>
<path d="M27.4287 19.5873H26.3493C26.2223 19.5873 26.1589 19.6508 26.0954 19.7143L24.6985 21.873L24.0636 19.8412C24.0001 19.7143 23.9366 19.6508 23.7461 19.6508H22.7303C22.6033 19.6508 22.5398 19.7778 22.5398 19.9047L23.6827 23.2698L22.6033 24.7936C22.5398 24.9206 22.6033 25.1111 22.7303 25.1111H23.7461C23.8731 25.1111 23.9366 25.0476 24.0001 24.9841L27.4922 19.9682C27.6827 19.7778 27.5557 19.5873 27.4287 19.5873Z" fill="#263B80"/>
<path d="M38.603 17.746L37.7141 23.4603C37.7141 23.5873 37.7776 23.6508 37.9046 23.6508H38.7935C38.9205 23.6508 39.0474 23.5238 39.1109 23.3968L39.9998 17.8095C39.9998 17.6825 39.9363 17.619 39.8093 17.619H38.7935C38.73 17.5555 38.6665 17.619 38.603 17.746Z" fill="#139AD6"/>
<path d="M7.30159 15.6508C6.85714 15.1429 6.03175 14.8889 4.88889 14.8889H1.71429C1.52381 14.8889 1.33333 15.0794 1.26984 15.2699L0 23.5873C0 23.7778 0.126984 23.9048 0.253968 23.9048H2.22222L2.73016 20.7937V20.9207C2.79365 20.7302 2.98413 20.5397 3.1746 20.5397H4.12698C5.96825 20.5397 7.36508 19.7778 7.80952 17.6826C7.80952 17.6191 7.80952 17.5556 7.80952 17.4921C7.74603 17.4921 7.74603 17.4921 7.80952 17.4921C7.87302 16.6667 7.74603 16.1588 7.30159 15.6508Z" fill="#263B80"/>
<path d="M7.74602 17.4921C7.74602 17.5556 7.74602 17.6191 7.74602 17.6825C7.30158 19.8413 5.90475 20.5397 4.06348 20.5397H3.1111C2.92063 20.5397 2.73015 20.7302 2.66666 20.9206L2.03174 24.7937C2.03174 24.9206 2.09523 25.0476 2.28571 25.0476H3.9365C4.12698 25.0476 4.31745 24.9206 4.31745 24.7302V24.6667L4.63491 22.6984V22.5714C4.63491 22.381 4.82539 22.254 5.01587 22.254H5.26983C6.85714 22.254 8.12698 21.6191 8.44444 19.7143C8.57142 18.9524 8.50793 18.254 8.12698 17.8095C8.06348 17.6825 7.9365 17.5556 7.74602 17.4921Z" fill="#139AD6"/>
<path d="M7.30165 17.3016C7.23816 17.3016 7.17467 17.2381 7.11118 17.2381C7.04768 17.2381 6.98419 17.2381 6.9207 17.1746C6.66673 17.1111 6.41276 17.1111 6.0953 17.1111H3.61911C3.55562 17.1111 3.49213 17.1111 3.42864 17.1746C3.30165 17.2381 3.23816 17.3651 3.23816 17.492L2.73022 20.7936V20.9206C2.79372 20.7301 2.98419 20.5397 3.17467 20.5397H4.12705C5.96832 20.5397 7.36515 19.7777 7.80959 17.6825C7.80959 17.619 7.80959 17.5555 7.87308 17.492C7.7461 17.4285 7.6826 17.3651 7.55562 17.3651C7.36514 17.3016 7.36514 17.3016 7.30165 17.3016Z" fill="#232C65"/>
</svg>
